<?xml version="1.0" encoding="UTF-8" standalone="no"?>
<!-- Created by AtomCrusher for the English Wikipedia -->

<svg
   version="1.1"
   width="612"
   height="612"
   id="svg6"
   sodipodi:docname="kowasm-logo.svg"
   inkscape:version="1.2.2 (b0a8486541, 2022-12-01)"
   inkscape:export-filename="kowasm-logo.png"
   inkscape:export-xdpi="188.23529"
   inkscape:export-ydpi="188.23529"
   xmlns:inkscape="http://www.inkscape.org/namespaces/inkscape"
   xmlns:sodipodi="http://sodipodi.sourceforge.net/DTD/sodipodi-0.dtd"
   xmlns="http://www.w3.org/2000/svg"
   xmlns:svg="http://www.w3.org/2000/svg">
  <defs
     id="defs10" />
  <sodipodi:namedview
     id="namedview8"
     pagecolor="#ffffff"
     bordercolor="#666666"
     borderopacity="1.0"
     inkscape:showpageshadow="2"
     inkscape:pageopacity="0.0"
     inkscape:pagecheckerboard="0"
     inkscape:deskcolor="#d1d1d1"
     showgrid="false"
     inkscape:zoom="1.3169935"
     inkscape:cx="204.63275"
     inkscape:cy="325.36227"
     inkscape:window-width="2560"
     inkscape:window-height="1382"
     inkscape:window-x="0"
     inkscape:window-y="32"
     inkscape:window-maximized="1"
     inkscape:current-layer="svg6" />
  <!-- Block -->
  <path
     id="path2"
     style="fill:#d45500"
     inkscape:label="path2"
     d="M 0 0 L 0 612 L 234.10156 612 A 71.352768 71.352768 0 0 1 233.91992 610.61328 A 71.352768 71.352768 0 0 1 305.27344 539.26172 A 71.352768 71.352768 0 0 1 376.625 610.61328 A 71.352768 71.352768 0 0 1 376.44336 612 L 612 612 L 612 0 L 376 0 L 376 3.3007812 C 376 42.060586 344.57988 73.470703 305.83008 73.470703 C 267.07028 73.470703 235.66016 42.050586 235.66016 3.3007812 L 235.66016 0 L 0 0 z M 84.978516 221.69922 L 125.08203 221.69922 L 125.08203 278.4707 L 182.89453 221.69922 L 229.45703 221.69922 L 154.56055 295.3457 L 237.16406 377.2207 L 186.95703 377.2207 L 125.08203 315.9707 L 125.08203 377.2207 L 84.978516 377.2207 L 84.978516 221.69922 z M 385.60156 221.69922 L 424.03906 221.69922 L 450.91406 334.7207 L 477.58203 221.69922 L 516.22656 221.69922 L 542.89258 334.7207 L 569.76758 221.69922 L 607.89258 221.69922 L 571.22656 377.2207 L 524.97656 377.2207 L 496.74805 258.99219 L 468.83203 377.2207 L 422.58203 377.2207 L 385.60156 221.69922 z M 306 234.16406 A 71.836555 71.836555 0 0 1 377.83594 306 A 71.836555 71.836555 0 0 1 306 377.83594 A 71.836555 71.836555 0 0 1 234.16406 306 A 71.836555 71.836555 0 0 1 306 234.16406 z " />
  <!-- Letters -->
</svg>
